<svg width="188" height="186" viewBox="0 0 188 186" fill="none" xmlns="http://www.w3.org/2000/svg">
<g clip-path="url(#clip0_18_1194)">
<path d="M60.522 91.766H54.4656C38.3801 105.98 25.8838 123.814 18.0013 143.805C18.8825 145.109 19.8057 146.385 20.7987 147.633C28.9025 125.829 42.6055 106.557 60.522 91.766ZM40.3526 91.766H34.2823C23.8427 101.023 14.8802 111.829 7.70686 123.808C8.29432 125.365 8.90975 126.907 9.56714 128.436C17.5158 114.435 27.9489 102.008 40.3526 91.766ZM80.7053 91.766H74.6489C54.0469 109.945 39.4506 133.979 32.7996 160.675C33.9046 161.656 35.0236 162.61 36.1705 163.479C42.7566 135.32 58.4073 110.118 80.7053 91.766ZM115.002 91.766C89.1369 114.563 72.9525 146.418 69.7674 180.797C71.0542 181.148 72.341 181.471 73.6418 181.765C75.1728 164.353 80.1569 147.424 88.3016 131.969C96.4463 116.514 107.588 102.846 121.072 91.766H115.002ZM100.889 91.766H94.8322C70.9701 112.8 55.2782 141.603 50.5212 173.099C51.7381 173.758 52.969 174.389 54.2278 174.992C58.8266 142.367 75.4798 112.664 100.889 91.766Z" fill="#242731"/>
<path d="M105.798 106.602C104.917 107.598 104.036 108.622 103.183 109.659C125.029 121.414 142.714 139.654 153.816 161.881C154.851 160.983 155.858 160.072 156.851 159.146C145.492 136.882 127.7 118.57 105.798 106.602Z" fill="#242731"/>
<path d="M96.0491 119.167C95.2938 120.247 94.5665 121.354 93.8531 122.462C113.9 133.807 130.279 150.68 141.045 171.08C142.178 170.393 143.283 169.677 144.388 168.976C133.32 148.108 116.553 130.831 96.0491 119.167Z" fill="#242731"/>
<path d="M87.8946 132.769C87.2932 133.933 86.6918 135.111 86.1183 136.303C102.905 146.63 116.906 160.931 126.891 177.951C128.121 177.474 129.352 176.983 130.569 176.45C120.187 158.56 105.52 143.547 87.8946 132.769Z" fill="#242731"/>
<path d="M81.4047 147.549C80.9291 148.825 80.4815 150.115 80.006 151.405C92.1101 159.787 102.582 170.319 110.903 182.48C112.302 182.214 113.701 181.933 115.099 181.611C106.179 168.172 94.7349 156.603 81.4047 147.549Z" fill="#242731"/>
<path d="M167.411 91.766H161.676C169.77 99.0958 176.829 107.498 182.657 116.741C183.147 115.016 183.58 113.263 183.958 111.496C179.142 104.36 173.597 97.7472 167.411 91.766Z" fill="#242731"/>
<path d="M76.4392 163.984C76.1036 165.386 75.7958 166.789 75.5161 168.289C81.3728 173.009 86.7724 178.272 91.6432 184.009H93.993C94.9162 184.009 95.8253 184.009 96.7904 184.009C90.7941 176.574 83.9656 169.855 76.4392 163.984Z" fill="#242731"/>
<path d="M117.309 95.0333C116.274 95.9729 115.239 96.8984 114.232 97.8379C136.264 109.529 154.121 127.805 165.327 150.129C166.25 148.994 167.131 147.858 167.999 146.694C156.594 124.809 138.948 106.825 117.309 95.0333Z" fill="#242731"/>
<path d="M142.095 91.766H135.101C151.842 102.72 165.595 117.685 175.118 135.307C175.859 133.905 176.517 132.503 177.258 131.1C168.475 115.62 156.485 102.207 142.095 91.766Z" fill="#242731"/>
<path d="M93.993 186C69.0725 185.974 45.18 176.037 27.5585 158.371C9.93704 140.704 0.0259222 116.75 3.8147e-06 91.766C3.8147e-06 91.2416 0.207785 90.7387 0.57764 90.3679C0.947495 89.9971 1.44913 89.7887 1.97218 89.7887H186.014C186.273 89.7887 186.529 89.8399 186.769 89.9393C187.008 90.0386 187.225 90.1843 187.408 90.3679C187.592 90.5515 187.737 90.7694 187.836 91.0093C187.935 91.2492 187.986 91.5063 187.986 91.766C187.96 116.75 178.049 140.704 160.427 158.371C142.806 176.037 118.914 185.974 93.993 186ZM3.95834 93.7432C4.54395 117.294 14.2867 139.682 31.1077 156.131C47.9286 172.58 70.4956 181.786 93.993 181.786C117.49 181.786 140.057 172.58 156.878 156.131C173.699 139.682 183.442 117.294 184.028 93.7432H3.95834Z" fill="#242731"/>
<path d="M93.2517 67.4222L97.4478 63.1031L101.714 67.4222C106.96 73.0563 111.174 79.5739 114.162 86.6756C116.562 84.3435 118.47 81.5515 119.772 78.4657C121.074 75.3798 121.745 72.063 121.743 68.7123V5.28664C121.743 3.16917 118.764 1.27608 115.953 1.27608V50.5807H107.267V2.48205C107.117 1.79001 106.736 1.17011 106.186 0.725528C105.637 0.280942 104.952 0.0384827 104.245 0.0384827C103.539 0.0384827 102.854 0.280942 102.305 0.725528C101.755 1.17011 101.374 1.79001 101.224 2.48205V50.6788H92.2726V2.48205C92.1232 1.79001 91.742 1.17011 91.1923 0.725528C90.6426 0.280942 89.9576 0.0384827 89.2514 0.0384827C88.5451 0.0384827 87.8602 0.280942 87.3105 0.725528C86.7608 1.17011 86.3796 1.79001 86.2302 2.48205V50.6788H77.5302V0.68712C75.7679 0.68712 71.7396 1.65471 71.7396 5.03423V68.7123C71.7414 72.2993 72.513 75.844 74.0021 79.1056C75.4912 82.3672 77.6628 85.2694 80.3696 87.6152C83.3865 80.1462 87.7538 73.3003 93.2517 67.4222Z" fill="#242731"/>
<path d="M63.3334 77.6589C27.5545 78.8929 1.95818 82.1883 1.95818 86.0727H69.3618C66.9843 83.5525 64.9565 80.7224 63.3334 77.6589Z" fill="#7BD3A5"/>
<path d="M125.674 86.0587H187.706C187.706 82.3847 164.572 79.2295 131.534 77.8552C129.941 80.831 127.971 83.5883 125.674 86.0587Z" fill="#7BD3A5"/>
</g>
<defs>
<clipPath id="clip0_18_1194">
<rect width="188" height="186" fill="white"/>
</clipPath>
</defs>
</svg>
